<svg width="32" height="32" viewBox="0 0 32 32" fill="none" xmlns="http://www.w3.org/2000/svg">
<path d="M11.3401 14.0622C11.3401 16.5875 13.3958 18.6345 15.9211 18.6345V21.4929C13.3957 21.4929 11.3402 23.5398 11.3401 26.0651H8.66333C8.66322 23.5398 6.60866 21.4929 4.08325 21.4929V18.6345C6.60856 18.6345 8.66333 16.5875 8.66333 14.0622H11.3401Z" fill="#0F172A"/>
<path d="M21.4479 5.9167C25.0205 5.9167 27.9166 9.00653 27.9166 12.818C27.9166 16.1288 25.7314 18.895 22.8158 19.5647L25.6416 26.0834H21.5054L16.9917 15.6706H21.4479C22.9404 15.6706 24.1504 14.4104 24.1504 12.818C24.1504 11.2257 22.9404 9.93481 21.4479 9.93481H9.20044V5.9167H21.4479Z" fill="#0F172A"/>
</svg>
